<?xml version="1.0" encoding="utf-8"?>
<!-- Generator: Adobe Illustrator 25.1.0, SVG Export Plug-In . SVG Version: 6.00 Build 0)  -->
<svg version="1.1" id="dry" xmlns="http://www.w3.org/2000/svg" xmlns:xlink="http://www.w3.org/1999/xlink" x="0px" y="0px"
	 viewBox="0 0 32 32" style="enable-background:new 0 0 32 32;" xml:space="preserve">
<g id="base">
	<path d="M28,4H4v24h24V4z M25,25H7V7h18V25z"/>
</g>
<g id="tumble">
	<path d="M16,7c-5,0-9,4-9,9s4,9,9,9s9-4,9-9S21,7,16,7z M16,24c-4.4,0-8-3.6-8-8s3.6-8,8-8s8,3.6,8,8S20.4,24,16,24z"/>
</g>
<g id="no-dry">
	<polygon points="31,9.3 30,7 16,14.7 2,7 1,9.3 13.5,16.1 1,22.9 2,25 16,17.4 30,25 31,22.9 18.5,16.1 	"/>
</g>
<g id="high">
	<circle cx="11" cy="16" r="2"/>
	<circle cx="16" cy="16" r="2"/>
	<circle cx="21" cy="16" r="2"/>
</g>
<g id="medium">
	<circle cx="13" cy="16" r="2"/>
	<circle cx="19" cy="16" r="2"/>
</g>
<g id="low">
	<circle cx="16" cy="16" r="2"/>
</g>
<g id="no-heat">
	<circle cx="16" cy="16" r="9"/>
</g>
<g id="perm-press">
	<rect x="11" y="29" width="10" height="2"/>
</g>
<g id="delicate">
	<rect x="5" y="29" width="10" height="2"/>
	<rect x="17" y="29" width="10" height="2"/>
</g>
<g id="line">
	<path d="M27.5,4.5h-2.1C23.2,7.2,19.8,9,16,9S8.8,7.2,6.6,4.5H4.5V5C7,8.6,11.2,11,16,11s9-2.4,11.5-6V4.5z"/>
</g>
<g id="flat">
	<rect x="10" y="15" width="12" height="2"/>
</g>
<g id="drip">
	<rect x="15" y="10" width="2" height="12"/>
	<rect x="10" y="10" width="2" height="12"/>
	<rect x="20" y="10" width="2" height="12"/>
</g>
<g id="shade">
	<rect x="10.8" y="3.5" transform="matrix(0.7071 0.7071 -0.7071 0.7071 11.5 -4.7635)" width="1.4" height="16"/>
	<rect x="8.8" y="4.5" transform="matrix(0.7071 0.7071 -0.7071 0.7071 9.5 -3.935)" width="1.4" height="10"/>
</g>
</svg>
