<?xml version="1.0" encoding="utf-8"?>
<!-- Generator: Adobe Illustrator 25.1.0, SVG Export Plug-In . SVG Version: 6.00 Build 0)  -->
<svg version="1.1" id="dryclean" xmlns="http://www.w3.org/2000/svg" xmlns:xlink="http://www.w3.org/1999/xlink" x="0px" y="0px"
	 viewBox="0 0 32 32" style="enable-background:new 0 0 32 32;" xml:space="preserve">
<g id="base">
	<path d="M16,26c6.1,0,11-4.9,11-11S22.1,4,16,4S5,8.9,5,15S9.9,26,16,26z M16,6c5,0,9,4,9,9s-4,9-9,9s-9-4-9-9S11,6,16,6z"/>
</g>
<g id="very-mild">
	<rect x="11" y="30" width="10" height="2"/>
</g>
<g id="mild">
	<rect x="11" y="27" width="10" height="2"/>
</g>
<g id="no-wet">
	<path d="M4,25l3.8-2.7c2,2.3,4.9,3.7,8.2,3.7c3.3,0,6.2-1.4,8.2-3.7L28,25l1-2.1l-3.4-2.5C26.5,18.8,27,17,27,15s-0.5-3.8-1.4-5.4
		L29,7.1L28,5l-3.8,2.7C22.2,5.4,19.3,4,16,4c-3.3,0-6.2,1.4-8.2,3.7L4,5L3,7.3l3.4,2.4C5.5,11.3,5,13.1,5,15s0.5,3.7,1.4,5.3
		L3,22.7L4,25z"/>
</g>
<g id="no">
	<polygon points="29,7.1 28,5 15.9,13.5 4,5 3,7.3 13.9,15 3,22.7 4,25 15.9,16.5 28,25 29,22.9 18,15 	"/>
</g>
<g id="no-tce">
	<path d="M14.6,16.7h1.5c1.3,0,2.3-0.3,3-1c0.7-0.7,1.1-1.6,1.1-2.7c0-1.1-0.4-1.9-1.1-2.5c-0.7-0.6-1.7-0.9-3-0.9h-3.4v11.2h1.9
		C14.6,20.8,14.6,16.7,14.6,16.7z M14.6,11.1h1.4c1.5,0,2.3,0.7,2.3,2c0,0.7-0.2,1.2-0.6,1.6c-0.4,0.4-1,0.6-1.8,0.6h-1.2V11.1z"/>
</g>
<g id="wet">
	<path d="M20.9,11l-1.7,7.2c-0.1,0.4-0.1,0.7-0.2,0.9h0c0-0.3-0.1-0.6-0.1-0.9L17,11h-1.7l-2,7.2c-0.1,0.4-0.2,0.7-0.2,0.9h0
		c0-0.3-0.1-0.6-0.1-0.9L11.2,11H9.4l2.7,9.8H14l1.9-6.9C16,13.6,16,13.3,16,13h0c0,0.3,0.1,0.7,0.1,1l1.9,6.9h1.8l2.7-9.8
		C22.6,11,20.9,11,20.9,11z"/>
</g>
<g id="petroleum">
	<polygon points="15.2,16.1 19.1,16.1 19.1,14.5 15.2,14.5 15.2,11.2 19.4,11.2 19.4,9.6 13.4,9.6 13.4,20.8 15.2,20.8 	"/>
</g>
<g id="any">
	<path d="M13.8,17.9h4.4l1,2.9h2L17.1,9.6H15l-4.2,11.2h2L13.8,17.9z M15.8,12c0.1-0.2,0.1-0.4,0.2-0.7h0c0.1,0.3,0.1,0.6,0.1,0.7
		l1.6,4.5h-3.4L15.8,12z"/>
</g>
<g id="short-cycle">
	<rect x="5.8" y="19.2" transform="matrix(0.7071 -0.7072 0.7072 0.7071 -15.1146 11.9006)" width="2" height="10"/>
</g>
<g id="low-heat">
	<rect x="20.2" y="23.2" transform="matrix(0.7071 -0.7072 0.7072 0.7071 -9.7283 24.903)" width="10" height="2"/>
</g>
<g id="no-steam-finish">
	<rect x="24.2" y="0.8" transform="matrix(0.7071 -0.7072 0.7072 0.7071 3.2741 19.5167)" width="2" height="10"/>
</g>
<g id="reduce-moisture">
	<rect x="1.8" y="4.8" transform="matrix(0.7071 -0.7072 0.7072 0.7071 -2.1122 6.5143)" width="10" height="2"/>
</g>
</svg>
