<?xml version="1.0" encoding="utf-8"?>
<!-- Generator: Adobe Illustrator 25.1.0, SVG Export Plug-In . SVG Version: 6.00 Build 0)  -->
<svg version="1.1" xmlns="http://www.w3.org/2000/svg" xmlns:xlink="http://www.w3.org/1999/xlink" x="0px" y="0px"
	 viewBox="0 0 32 32" style="enable-background:new 0 0 32 32;" xml:space="preserve">
<g id="base">
	<path d="M29,8.1L28,6l-7.8,5.5c-1.1-0.4-2.1-0.5-3-0.5c-2.4,0-4.2,0.9-4.2,0.9h-0.8L4,6L3,8.3l5,3.6H4V20h3l1.4-1.6
		c0.3,0.3,0.6,0.6,1,0.8L3,23.7L4,26l7.8-5.6c1,0.4,2.1,0.5,3,0.5c2.4,0,4.2-0.9,4.2-0.9h0.5l8.5,6l1-2.1L23.5,20H28v-8.1h-3
		l-1.4,1.6c-0.3-0.3-0.7-0.6-1-0.8L29,8.1z M19.2,12.2l-3.3,2.3l-2.4-1.7l0.1-0.1c0.5-0.2,1.8-0.7,3.6-0.7
		C17.9,12,18.5,12.1,19.2,12.2z M6.5,19H5v-6.1h4.5l1.5,1L6.5,19z M9.4,17.9l2.6-3.2l1.9,1.3l-3.6,2.5C9.9,18.4,9.7,18.1,9.4,17.9z
		 M12.8,19.7l3.1-2.2l2.4,1.7c-0.5,0.2-1.8,0.7-3.6,0.7C14.1,19.9,13.5,19.8,12.8,19.7z M25.5,12.9H27V19h-4.9l-1.2-0.9L25.5,12.9z
		 M22.6,14l-2.8,3.4L18,16l3.7-2.7C22,13.5,22.3,13.7,22.6,14z"/>
</g>
</svg>
