<?xml version="1.0" encoding="utf-8"?>
<!-- Generator: Adobe Illustrator 25.1.0, SVG Export Plug-In . SVG Version: 6.00 Build 0)  -->
<svg version="1.1" id="wash" xmlns="http://www.w3.org/2000/svg" xmlns:xlink="http://www.w3.org/1999/xlink" x="0px" y="0px"
	 viewBox="0 0 32 32" style="enable-background:new 0 0 32 32;" xml:space="preserve">
<g id="base">
	<path d="M27.6,10c-0.5-0.1-0.9-0.4-1.3-0.8C25.8,8.6,25.2,8,24,8s-1.8,0.6-2.4,1.1C21.2,9.6,20.8,10,20,10s-1.2-0.4-1.6-0.9
		C17.8,8.6,17.2,8,16,8s-1.8,0.6-2.4,1.1C13.2,9.6,12.8,10,12,10s-1.2-0.4-1.6-0.9C9.8,8.6,9.2,8,8,8S6.2,8.6,5.6,9.1
		C5.3,9.5,4.9,9.8,4.4,10L4,8H1l4,18h22l4-18h-3L27.6,10z M25,23H7L4.6,10.9c0.8-0.2,1.3-0.7,1.8-1.1C6.8,9.4,7.2,9,8,9
		s1.2,0.4,1.6,0.9c0.5,0.5,1.1,1.1,2.4,1.1s1.8-0.6,2.4-1.1C14.8,9.4,15.2,9,16,9c0.8,0,1.2,0.4,1.6,0.9c0.5,0.5,1.1,1.1,2.4,1.1
		s1.8-0.6,2.4-1.1C22.8,9.4,23.2,9,24,9s1.2,0.4,1.6,0.9c0.4,0.4,0.9,0.9,1.8,1.1L25,23z"/>
</g>
<g id="hand">
	<path d="M10,9c0,1.6,1.1,2.3,2,1.9V15c0,1.9,1.6,2.5,2.5,1.5c0.6,0.6,1.4,0.6,2,0c0.3,0.3,0.6,0.5,1,0.5c0.7,0,1.5-0.7,1.5-2v-3.1
		c0.6,0.2,1.2,0,1.6-0.5c0.3-0.4,0.4-0.9,0.4-1.4V6c0-3.1-0.5-5-0.8-6h-1.1C19.4,0.7,20,2.6,20,6v4c0,0.4-0.1,0.6-0.2,0.8
		C19.5,11.2,19,10.9,19,10V7.5h-1V15c0,1.3-1,1.3-1,0V8.5h-1V15c0,1.3-1,1.3-1,0V8.5h-1V15c0,1.3-1,1.3-1,0V6h-1v3c0,1.3-1,1.3-1,0
		V5c0-1.8,2.5-4.1,3.7-5h-1.5C11.9,1.1,10,3.1,10,5V9z"/>
	<path d="M27.6,10c-0.5-0.1-0.9-0.4-1.3-0.8C25.8,8.6,25.2,8,24,8c-0.9,0-1.5,0.4-2,0.8v1.4c0.1-0.1,0.2-0.2,0.4-0.3
		C22.8,9.4,23.2,9,24,9s1.2,0.4,1.6,0.9c0.4,0.4,0.9,0.9,1.8,1.1L25,23H7L4.6,10.9c0.8-0.2,1.3-0.7,1.8-1.1C6.8,9.4,7.2,9,8,9
		c0.4,0,0.7,0.1,1,0.3V8.2C8.7,8.1,8.4,8,8,8C6.8,8,6.2,8.6,5.6,9.1C5.3,9.5,4.9,9.8,4.4,10L4,8H1l4,18h22l4-18h-3L27.6,10z"/>
</g>
<g id="nowash">
	<polygon points="32,10.1 31,8 16,15.8 1,8 0,10.1 13.4,17.2 1,23.7 2,26 16,18.6 30,26 31,23.7 18.6,17.2 	"/>
</g>
<g id="perm-press">
	<rect x="11" y="27" width="10" height="2"/>
</g>
<g id="delicate">
	<rect x="11" y="30" width="10" height="2"/>
</g>
<g id="hand-30">
	<circle cx="16" cy="20" r="2"/>
</g>
<g id="dot-30">
	<circle cx="16" cy="17" r="2"/>
</g>
<g id="deg-30">
	<path d="M11.4,17L11.4,17c1-0.3,1.5-1,1.5-2c0-0.5-0.2-1-0.6-1.3c-0.4-0.3-1-0.5-1.6-0.5c-0.7,0-1.3,0.1-1.9,0.4v1.1
		c0.5-0.4,0.9-0.6,1.5-0.6c0.9,0,1.4,0.4,1.4,1.1c0,0.8-0.6,1.2-1.8,1.2H9.3v1h0.6c1.3,0,2,0.4,2,1.3c0,0.4-0.2,0.7-0.5,0.9
		c-0.3,0.2-0.7,0.4-1.2,0.4c-0.6,0-1.2-0.2-1.7-0.6v1.2c0.5,0.3,1.1,0.4,1.8,0.4c0.8,0,1.5-0.2,2.1-0.6s0.8-1,0.8-1.7
		c0-0.5-0.2-0.9-0.5-1.3C12.4,17.2,12,17,11.4,17z"/>
	<path d="M17,13.2c-0.9,0-1.6,0.4-2,1c-0.5,0.7-0.7,1.7-0.7,3.1c0,1.2,0.2,2.2,0.7,2.8s1.1,1,1.9,1c0.9,0,1.5-0.3,2-1
		c0.5-0.7,0.7-1.7,0.7-3C19.6,14.5,18.7,13.2,17,13.2z M16.9,20.1c-0.9,0-1.4-1-1.4-2.9c0-2.1,0.5-3.1,1.4-3.1c0.9,0,1.3,1,1.3,3
		C18.3,19.2,17.8,20.1,16.9,20.1z"/>
	<path d="M22.1,13.2c-0.4,0-0.8,0.1-1.1,0.4c-0.3,0.3-0.4,0.6-0.4,1.1c0,0.4,0.1,0.8,0.4,1.1c0.3,0.3,0.6,0.4,1.1,0.4
		c0.4,0,0.8-0.1,1.1-0.4c0.3-0.3,0.4-0.7,0.4-1.1c0-0.4-0.1-0.8-0.4-1C22.9,13.3,22.5,13.2,22.1,13.2z M22.7,15.2
		c-0.2,0.2-0.3,0.2-0.6,0.2c-0.2,0-0.4-0.1-0.5-0.2c-0.1-0.2-0.2-0.3-0.2-0.6c0-0.2,0.1-0.4,0.2-0.5s0.3-0.2,0.6-0.2
		c0.2,0,0.4,0.1,0.5,0.2s0.2,0.3,0.2,0.6C22.9,14.9,22.8,15.1,22.7,15.2z"/>
</g>
<g id="hand-40">
	<circle cx="18" cy="20" r="2"/>
	<circle cx="13" cy="20" r="2"/>
</g>
<g id="dot-40">
	<circle cx="18" cy="17" r="2"/>
	<circle cx="13" cy="17" r="2"/>
</g>
<g id="deg-40">
	<path d="M12.5,13.3h-1.3l-3.3,5v0.8h3.5V21h1.2v-1.9h1v-0.9h-1V13.3z M11.4,15.2v3H9l2.1-3.2c0.1-0.2,0.2-0.4,0.3-0.5h0
		C11.4,14.8,11.4,15,11.4,15.2z"/>
	<path d="M17.1,13.2c-0.9,0-1.6,0.3-2,1c-0.5,0.7-0.7,1.7-0.7,3.1c0,1.2,0.2,2.2,0.7,2.8s1.1,1,1.9,1c0.9,0,1.5-0.3,2-1
		c0.5-0.7,0.7-1.7,0.7-3C19.6,14.5,18.8,13.2,17.1,13.2z M17,20.1c-0.9,0-1.4-1-1.4-2.9c0-2.1,0.5-3.1,1.4-3.1c0.9,0,1.3,1,1.3,3
		C18.4,19.2,17.9,20.1,17,20.1z"/>
	<path d="M22.2,13.2c-0.4,0-0.8,0.1-1.1,0.4c-0.3,0.3-0.4,0.6-0.4,1.1c0,0.4,0.1,0.8,0.4,1.1c0.3,0.3,0.6,0.4,1.1,0.4
		c0.4,0,0.8-0.1,1.1-0.4c0.3-0.3,0.4-0.7,0.4-1.1c0-0.4-0.1-0.8-0.4-1.1C23,13.3,22.6,13.2,22.2,13.2z M22.8,15.2
		c-0.2,0.2-0.3,0.2-0.6,0.2c-0.2,0-0.4-0.1-0.5-0.2s-0.2-0.3-0.2-0.6c0-0.2,0.1-0.4,0.2-0.5s0.3-0.2,0.6-0.2c0.2,0,0.4,0.1,0.5,0.2
		c0.2,0.1,0.2,0.3,0.2,0.6C23,14.9,22.9,15.1,22.8,15.2z"/>
</g>
<g id="dot-50">
	<circle cx="21" cy="17" r="2"/>
	<circle cx="16" cy="17" r="2"/>
	<circle cx="11" cy="17" r="2"/>
</g>
<g id="deg-50">
	<path d="M10.7,16.3c-0.2,0-0.4,0-0.6,0v-1.9h2.9v-1.1h-4v4.1c0.6,0,0.9-0.1,1.2-0.1c0.6,0,1.1,0.1,1.4,0.4c0.3,0.2,0.5,0.6,0.5,1
		c0,0.4-0.2,0.8-0.5,1.1c-0.3,0.3-0.7,0.4-1.3,0.4c-0.5,0-1-0.2-1.5-0.5v1.2c0.4,0.2,0.9,0.3,1.7,0.3c0.9,0,1.6-0.2,2.1-0.7
		c0.5-0.5,0.8-1.1,0.8-1.8c0-0.7-0.2-1.3-0.7-1.7C12.1,16.5,11.5,16.3,10.7,16.3z"/>
	<path d="M17,13.2c-0.9,0-1.6,0.4-2,1c-0.5,0.7-0.7,1.7-0.7,3.1c0,1.2,0.2,2.2,0.7,2.8s1.1,1,1.9,1c0.9,0,1.5-0.3,2-1
		c0.5-0.7,0.7-1.7,0.7-3C19.6,14.5,18.7,13.2,17,13.2z M16.9,20.1c-0.9,0-1.4-1-1.4-2.9c0-2.1,0.5-3.1,1.4-3.1c0.9,0,1.3,1,1.3,3
		C18.3,19.2,17.8,20.1,16.9,20.1z"/>
	<path d="M22.1,13.2c-0.4,0-0.8,0.1-1.1,0.4c-0.3,0.3-0.4,0.6-0.4,1.1c0,0.4,0.1,0.8,0.4,1.1c0.3,0.3,0.6,0.4,1.1,0.4
		c0.4,0,0.8-0.1,1.1-0.4c0.3-0.3,0.4-0.7,0.4-1.1c0-0.4-0.1-0.8-0.4-1C22.9,13.3,22.5,13.2,22.1,13.2z M22.7,15.2
		c-0.2,0.2-0.3,0.2-0.6,0.2c-0.2,0-0.4-0.1-0.5-0.2c-0.1-0.2-0.2-0.3-0.2-0.6c0-0.2,0.1-0.4,0.2-0.5s0.3-0.2,0.6-0.2
		c0.2,0,0.4,0.1,0.5,0.2s0.2,0.3,0.2,0.6C22.9,14.9,22.8,15.1,22.7,15.2z"/>
</g>
<g id="dot-60">
	<circle cx="18" cy="20" r="2"/>
	<circle cx="13" cy="20" r="2"/>
	<circle cx="18" cy="15" r="2"/>
	<circle cx="13" cy="15" r="2"/>
</g>
<g id="deg-60">
	<path d="M11.3,16.1c-0.8,0-1.4,0.3-1.7,1h0c0-0.9,0.2-1.6,0.6-2.1c0.4-0.5,0.9-0.8,1.6-0.8c0.4,0,0.8,0.1,1.2,0.3v-1.1
		c-0.3-0.1-0.8-0.2-1.3-0.2c-1,0-1.8,0.4-2.4,1.2s-0.9,1.9-0.9,3.2c0,1.1,0.2,2,0.7,2.6c0.5,0.6,1.1,0.9,1.9,0.9
		c0.7,0,1.3-0.2,1.8-0.7c0.5-0.5,0.7-1.1,0.7-1.9c0-0.7-0.2-1.3-0.6-1.8C12.5,16.3,12,16.1,11.3,16.1z M11.9,19.7
		c-0.2,0.3-0.5,0.4-0.9,0.4c-0.4,0-0.7-0.2-1-0.5c-0.2-0.3-0.4-0.7-0.4-1.2c0-0.4,0.1-0.7,0.4-1c0.2-0.3,0.6-0.4,0.9-0.4
		c0.4,0,0.7,0.1,0.9,0.4c0.2,0.3,0.3,0.6,0.3,1.1C12.2,19.1,12.1,19.4,11.9,19.7z"/>
	<path d="M17.1,13.2c-0.9,0-1.6,0.4-2,1c-0.5,0.7-0.7,1.7-0.7,3.1c0,1.2,0.2,2.2,0.7,2.8s1.1,1,1.9,1c0.9,0,1.5-0.3,2-1
		c0.5-0.7,0.7-1.7,0.7-3C19.6,14.5,18.8,13.2,17.1,13.2z M17,20.1c-0.9,0-1.4-1-1.4-2.9c0-2.1,0.5-3.1,1.4-3.1c0.9,0,1.3,1,1.3,3
		C18.4,19.2,17.9,20.1,17,20.1z"/>
	<path d="M22.2,13.2c-0.4,0-0.8,0.1-1.1,0.4c-0.3,0.3-0.4,0.6-0.4,1.1c0,0.4,0.1,0.8,0.4,1.1c0.3,0.3,0.6,0.4,1.1,0.4
		c0.4,0,0.8-0.1,1.1-0.4c0.3-0.3,0.4-0.7,0.4-1.1c0-0.4-0.1-0.8-0.4-1C23,13.3,22.6,13.2,22.2,13.2z M22.7,15.2
		c-0.2,0.2-0.3,0.2-0.6,0.2c-0.2,0-0.4-0.1-0.5-0.2c-0.1-0.2-0.2-0.3-0.2-0.6c0-0.2,0.1-0.4,0.2-0.5s0.3-0.2,0.6-0.2
		c0.2,0,0.4,0.1,0.5,0.2s0.2,0.3,0.2,0.6C23,14.9,22.9,15.1,22.7,15.2z"/>
</g>
<g id="dot-70">
	<circle cx="18" cy="20" r="2"/>
	<circle cx="13" cy="20" r="2"/>
	<circle cx="21" cy="15" r="2"/>
	<circle cx="16" cy="15" r="2"/>
	<circle cx="11" cy="15" r="2"/>
</g>
<g id="deg-70">
	<polygon points="8.4,14.4 12.2,14.4 9.3,21 10.7,21 13.6,13.8 13.6,13.3 8.4,13.3 	"/>
	<path d="M16.9,13.2c-0.9,0-1.6,0.4-2,1c-0.5,0.7-0.7,1.7-0.7,3.1c0,1.2,0.2,2.2,0.7,2.8s1.1,1,1.9,1c0.9,0,1.5-0.3,2-1
		c0.5-0.7,0.7-1.7,0.7-3C19.4,14.5,18.6,13.2,16.9,13.2z M16.8,20.1c-0.9,0-1.4-1-1.4-2.9c0-2.1,0.5-3.1,1.4-3.1c0.9,0,1.3,1,1.3,3
		C18.2,19.2,17.7,20.1,16.8,20.1z"/>
	<path d="M22,13.2c-0.4,0-0.8,0.1-1.1,0.4c-0.3,0.3-0.4,0.6-0.4,1.1c0,0.4,0.1,0.8,0.4,1.1c0.3,0.3,0.6,0.4,1.1,0.4
		c0.4,0,0.8-0.1,1.1-0.4c0.3-0.3,0.4-0.7,0.4-1.1c0-0.4-0.1-0.8-0.4-1C22.8,13.3,22.4,13.2,22,13.2z M22.6,15.2
		c-0.2,0.2-0.3,0.2-0.6,0.2c-0.2,0-0.4-0.1-0.5-0.2c-0.1-0.2-0.2-0.3-0.2-0.6c0-0.2,0.1-0.4,0.2-0.5s0.3-0.2,0.6-0.2
		c0.2,0,0.4,0.1,0.5,0.2s0.2,0.3,0.2,0.6C22.8,14.9,22.7,15.1,22.6,15.2z"/>
</g>
<g id="dot-95">
	<circle cx="21" cy="20" r="2"/>
	<circle cx="16" cy="20" r="2"/>
	<circle cx="11" cy="20" r="2"/>
	<circle cx="21" cy="15" r="2"/>
	<circle cx="16" cy="15" r="2"/>
	<circle cx="11" cy="15" r="2"/>
</g>
<g id="deg-95">
	<path d="M11.1,13.2c-0.8,0-1.4,0.2-1.9,0.7c-0.5,0.5-0.7,1.1-0.7,1.9c0,0.7,0.2,1.3,0.6,1.7c0.4,0.5,0.9,0.7,1.6,0.7
		c0.8,0,1.3-0.3,1.7-0.9c0,0,0,0,0,0c0,0.9-0.2,1.6-0.6,2.1c-0.4,0.5-0.9,0.7-1.6,0.7c-0.5,0-0.9-0.1-1.3-0.4v1.1
		c0.4,0.2,0.9,0.3,1.4,0.3c1,0,1.8-0.4,2.4-1.2s0.9-1.9,0.9-3.3c0-1.1-0.2-2-0.7-2.6C12.5,13.5,11.9,13.2,11.1,13.2z M12,16.8
		c-0.2,0.2-0.5,0.4-0.9,0.4c-0.4,0-0.7-0.1-1-0.4c-0.2-0.3-0.4-0.6-0.4-1.1c0-0.4,0.1-0.8,0.4-1.1c0.2-0.3,0.5-0.4,0.9-0.4
		c0.4,0,0.7,0.2,1,0.5c0.2,0.3,0.4,0.7,0.4,1.3C12.3,16.3,12.2,16.6,12,16.8z"/>
	<path d="M16.9,16.3c-0.2,0-0.4,0-0.6,0v-1.9h2.9v-1.1h-4v4.1c0.6,0,0.9-0.1,1.2-0.1c0.6,0,1.1,0.1,1.4,0.4c0.3,0.2,0.5,0.6,0.5,1
		c0,0.4-0.2,0.8-0.5,1.1c-0.3,0.3-0.7,0.4-1.3,0.4c-0.5,0-1-0.2-1.5-0.5v1.2c0.4,0.2,0.9,0.3,1.7,0.3c0.9,0,1.6-0.2,2.1-0.7
		c0.5-0.5,0.8-1.1,0.8-1.8c0-0.7-0.2-1.3-0.7-1.7C18.3,16.5,17.7,16.3,16.9,16.3z"/>
	<path d="M21.9,13.2c-0.4,0-0.8,0.1-1.1,0.4c-0.3,0.3-0.4,0.6-0.4,1.1c0,0.4,0.1,0.8,0.4,1.1c0.3,0.3,0.6,0.4,1.1,0.4
		c0.4,0,0.8-0.1,1.1-0.4c0.3-0.3,0.4-0.7,0.4-1.1c0-0.4-0.1-0.8-0.4-1C22.7,13.3,22.3,13.2,21.9,13.2z M22.4,15.2
		c-0.2,0.2-0.3,0.2-0.6,0.2c-0.2,0-0.4-0.1-0.5-0.2c-0.1-0.2-0.2-0.3-0.2-0.6c0-0.2,0.1-0.4,0.2-0.5s0.3-0.2,0.6-0.2
		c0.2,0,0.4,0.1,0.5,0.2s0.2,0.3,0.2,0.6C22.7,14.9,22.6,15.1,22.4,15.2z"/>
</g>
</svg>
