<?xml version="1.0" standalone="no"?>
<!DOCTYPE svg PUBLIC "-//W3C//DTD SVG 20010904//EN"
 "http://www.w3.org/TR/2001/REC-SVG-20010904/DTD/svg10.dtd">
<svg version="1.0" xmlns="http://www.w3.org/2000/svg"
 width="700.000000pt" height="700.000000pt" viewBox="0 0 700.000000 700.000000"
 preserveAspectRatio="xMidYMid meet">
<g transform="translate(0.000000,700.000000) scale(0.100000,-0.100000)"
fill="#000000" stroke="none">
<path d="M2845 6964 c-385 -344 -606 -673 -651 -969 -3 -16 -5 -255 -6 -531 0
-541 2 -573 53 -680 68 -145 200 -213 349 -182 l35 8 0 -468 c0 -257 3 -494 8
-527 12 -79 64 -190 113 -239 111 -111 286 -117 398 -13 l28 26 44 -34 c42
-32 125 -65 165 -65 50 0 126 26 176 60 l57 38 30 -29 c76 -75 206 -97 297
-50 95 48 158 130 195 256 16 53 18 105 19 440 l1 380 89 0 c105 1 155 20 221
81 53 50 89 113 110 194 15 57 17 130 17 610 0 490 -6 810 -17 880 -3 14 -7
57 -10 95 -4 39 -8 80 -10 92 -3 12 -7 50 -11 84 -4 35 -8 66 -10 69 -1 3 -6
28 -9 55 -4 28 -9 57 -11 65 -2 8 -6 26 -9 40 -3 14 -8 39 -11 55 -8 41 -43
179 -61 243 l-15 52 -121 0 c-110 0 -120 -1 -113 -17 37 -90 84 -256 106 -366
40 -205 55 -330 75 -592 10 -135 11 -1222 1 -1280 -21 -128 -90 -181 -152
-119 -54 54 -58 86 -59 447 l0 287 -108 0 c-79 0 -108 -3 -109 -12 0 -7 -1
-388 -1 -847 -1 -542 -5 -848 -11 -875 -24 -92 -82 -142 -132 -111 -26 16 -55
66 -66 113 -5 20 -9 369 -9 775 l0 737 -110 0 -110 0 -1 -727 c0 -401 -2 -743
-5 -762 -8 -62 -41 -121 -76 -135 -45 -19 -79 0 -109 61 l-24 48 -2 700 c-1
385 -2 726 -3 758 l0 57 -108 0 -109 0 0 -747 c-1 -810 -1 -802 -55 -860 -29
-31 -78 -30 -110 2 -53 53 -52 32 -54 1125 -1 558 -2 1018 -3 1023 -1 4 -49 6
-108 5 l-108 -3 0 -360 c-1 -317 -3 -366 -19 -412 -31 -92 -94 -119 -146 -63
-50 53 -53 92 -53 605 0 258 3 493 6 520 33 253 326 641 732 969 33 27 62 50
64 52 2 2 -70 4 -160 4 l-164 -1 -40 -35z"/>
<path d="M220 5243 c0 -5 5 -26 10 -48 6 -22 20 -83 31 -135 11 -52 22 -102
24 -110 2 -8 24 -109 50 -225 25 -115 57 -255 69 -310 13 -55 31 -136 41 -180
9 -44 23 -107 31 -140 7 -33 30 -134 50 -225 19 -91 37 -172 39 -180 2 -8 11
-49 20 -90 20 -89 16 -72 54 -245 48 -212 71 -314 86 -380 8 -33 21 -96 30
-140 10 -44 19 -87 21 -95 2 -8 15 -67 29 -130 14 -63 32 -144 41 -180 8 -36
16 -74 19 -85 2 -11 16 -74 30 -140 15 -66 31 -140 36 -165 5 -25 16 -72 24
-105 8 -33 26 -114 40 -180 15 -66 37 -165 50 -220 12 -55 28 -128 36 -161
l13 -62 2406 0 2406 -1 63 282 c35 155 72 323 83 372 10 50 21 97 23 105 6 29
157 705 160 720 2 8 26 118 54 243 28 126 53 238 55 250 3 12 24 105 46 207
23 102 43 196 46 210 3 14 10 43 16 65 5 22 12 51 15 65 2 14 13 66 24 115 12
50 23 100 25 112 3 17 89 401 108 483 18 75 112 505 127 575 10 50 21 100 24
113 l5 22 -328 0 -328 0 -19 -97 c-10 -54 -20 -102 -21 -108 -1 -5 -9 -46 -18
-90 -9 -44 -18 -90 -21 -103 -7 -40 -14 -42 -64 -23 -71 27 -150 82 -222 157
-156 161 -211 201 -324 237 -93 29 -272 31 -355 3 -76 -26 -156 -67 -217 -112
l-52 -39 0 -147 c0 -82 3 -148 6 -148 11 0 68 49 138 118 105 104 159 127 295
127 149 0 180 -16 346 -181 122 -122 247 -214 289 -214 7 0 16 -4 19 -9 3 -5
22 -12 41 -15 20 -4 38 -12 41 -19 2 -7 -28 -169 -67 -362 -38 -192 -72 -361
-75 -375 -3 -14 -30 -151 -60 -305 -31 -154 -58 -291 -61 -305 -2 -14 -8 -41
-13 -60 -5 -19 -11 -51 -14 -70 -3 -19 -8 -46 -11 -60 -2 -14 -12 -60 -21
-103 -8 -42 -17 -87 -20 -100 -2 -12 -29 -146 -60 -297 -30 -151 -58 -288 -60
-305 -3 -16 -16 -82 -30 -145 -13 -63 -24 -118 -24 -122 0 -10 -3940 -10
-3941 0 -1 9 7 -31 -89 452 -44 223 -82 416 -85 429 -13 70 -27 140 -35 176
-11 46 -150 749 -155 780 -4 32 -75 386 -85 430 -9 38 -25 117 -36 181 -3 16
-12 61 -20 99 -7 39 -14 75 -14 80 0 6 25 19 56 30 54 18 196 105 264 161 19
16 68 60 109 98 45 41 102 82 141 100 60 29 73 31 170 31 106 -1 111 -2 213
-53 4 -2 7 50 7 116 l0 120 -72 20 c-137 37 -300 21 -429 -42 -78 -39 -175
-114 -277 -215 -60 -59 -110 -98 -159 -124 l-71 -37 -8 42 c-4 24 -8 45 -9 48
-1 3 -5 25 -10 50 -5 25 -9 47 -10 50 0 3 -12 60 -25 128 l-24 122 -328 0
c-180 0 -328 -3 -328 -7z"/>
</g>
</svg>
