<?xml version="1.0" encoding="utf-8"?>
<!-- Generator: Adobe Illustrator 25.1.0, SVG Export Plug-In . SVG Version: 6.00 Build 0)  -->
<svg version="1.1" id="bleach" xmlns="http://www.w3.org/2000/svg" xmlns:xlink="http://www.w3.org/1999/xlink" x="0px" y="0px"
	 viewBox="0 0 32 32" style="enable-background:new 0 0 32 32;" xml:space="preserve">
<g id="base">
	<path d="M16,4L3,26h26L16,4z M16,9l8,14H8L16,9z"/>
</g>
<g id="no-bleach">
	<polygon points="32,23.9 18.6,16.8 31,10.3 30,8 16,15.4 2,8 1,10.3 13.4,16.8 0,23.9 1,26 16,18.2 31,26 	"/>
</g>
<g id="non-chlorine">
	<rect x="13.2" y="19.6" transform="matrix(-0.4695 0.8829 -0.8829 -0.4695 45.1007 12.9463)" width="11" height="0.9"/>
	<rect x="7.1" y="17.3" transform="matrix(-0.4695 0.8829 -0.8829 -0.4695 37.4675 12.8724)" width="15.6" height="0.9"/>
</g>
</svg>
