<?xml version="1.0" encoding="utf-8"?>
<!-- Generator: Adobe Illustrator 25.1.0, SVG Export Plug-In . SVG Version: 6.00 Build 0)  -->
<svg version="1.1" id="iron" xmlns="http://www.w3.org/2000/svg" xmlns:xlink="http://www.w3.org/1999/xlink" x="0px" y="0px"
	 viewBox="0 0 32 32" style="enable-background:new 0 0 32 32;" xml:space="preserve">
<g id="base">
	<path d="M3,26h22h4l-4-15c0,0,0-2-3-2S6,9,6,9l1,2c0,0,12,1,14,1s2,2,2,2l0.3,2c-2.9,0-7.5,0-11.3,0C4,16,3,26,3,26z M23.7,18l1,6
		H5.5c0.7-2.4,2.5-6,6.5-6H23.7z"/>
</g>
<g id="no-steam">
	<polygon points="31,20 30,17.7 16,23.1 2,17.7 1,20 12.6,24.4 1,28.9 2,31 11.7,27.3 11,31 13,31 13.9,26.5 16,25.7 18.1,26.5
		19,31 21,31 20.3,27.3 30,31 31,28.9 19.4,24.4 	"/>
</g>
<g id="no-iron">
	<polygon points="31,15 30,12.7 16,19.5 2,12.7 1,15 13.2,20.9 1,26.9 2,29 16,22.2 30,29 31,26.9 18.8,20.9 	"/>
</g>
<g id="high">
	<circle cx="21" cy="21" r="2"/>
	<circle cx="16" cy="21" r="2"/>
	<circle cx="11" cy="21" r="2"/>
</g>
<g id="medium">
	<circle cx="19" cy="21" r="2"/>
	<circle cx="14" cy="21" r="2"/>
</g>
<g id="low">
	<circle cx="16" cy="21" r="2"/>
</g>
</svg>
